<svg width="361" height="363" viewBox="0 0 361 363" fill="none" xmlns="http://www.w3.org/2000/svg">
<path d="M91.7221 220L117.155 208L69.8214 168.5L129.165 161L110.797 137L2 150.5L91.7221 220Z" fill="#EE1A24" stroke="#E91E23"/>
<path d="M129.872 160L111.503 136.5L148.24 2L182.151 126.5L167.315 155.5L148.24 86L129.872 160Z" fill="#F68B1F" stroke="#F68C1F"/>
<path d="M170.328 158.051L181.744 126.591L357.827 111.969L170.328 158.051Z" fill="#FEF103" stroke="#FEF102"/>
<path d="M148.946 263L146.121 229.5L98.7868 288L117.155 209L91.7221 220.5L54.279 362.5L148.946 263Z" fill="#2E3094" stroke="#2E3094"/>
<path d="M226.544 283.859L147.533 229.627L150.359 263.5L226.544 283.859Z" fill="#00ADEF" stroke="#02ADF2"/>
</svg>
