<svg width="449" height="362" viewBox="0 0 449 362" fill="none" xmlns="http://www.w3.org/2000/svg">
<path d="M64.5 219L82.5 207L49 167.5L91 160L78 136L1 149.5L64.5 219Z" fill="#EE1A24" stroke="#E91E23"/>
<path d="M91.5 159L78.5 135.5L104.5 1L128.5 125.5L118 154.5L104.5 85L91.5 159Z" fill="#F68B1F" stroke="#F68C1F"/>
<path d="M118.5 156L129 126L254 131L118.5 156Z" fill="#FEF103" stroke="#FEF102"/>
<path d="M105 262L103 228.5L69.5 287L82.5 208L64.5 219.5L38 361.5L105 262Z" fill="#2E3094" stroke="#2E3094"/>
<path d="M159.919 282.859L104 228.627L106 262.5L159.919 282.859Z" fill="#00ADEF" stroke="#02ADF2"/>
<path d="M132.961 196H122.57V176.395H132.523V178.473H124.867V184.994H131.949V187.059H124.867V193.922H132.961V196ZM146.66 182L141.957 189.082L146.578 196H143.967L141.219 191.461C141.046 191.178 140.84 190.823 140.604 190.395H140.549C140.503 190.477 140.289 190.832 139.906 191.461L137.104 196H134.52L139.291 189.137L134.725 182H137.336L140.043 186.785C140.243 187.141 140.439 187.505 140.631 187.879H140.686L144.186 182H146.66ZM158.828 195.357C157.753 196.005 156.477 196.328 155 196.328C153.004 196.328 151.391 195.681 150.16 194.387C148.939 193.083 148.328 191.397 148.328 189.328C148.328 187.022 148.989 185.172 150.311 183.777C151.632 182.374 153.396 181.672 155.602 181.672C156.832 181.672 157.917 181.9 158.855 182.355V184.652C157.816 183.923 156.704 183.559 155.52 183.559C154.089 183.559 152.913 184.074 151.992 185.104C151.081 186.124 150.625 187.469 150.625 189.137C150.625 190.777 151.053 192.072 151.91 193.02C152.776 193.967 153.934 194.441 155.383 194.441C156.604 194.441 157.753 194.036 158.828 193.225V195.357ZM173.471 189.561H163.586C163.622 191.119 164.042 192.322 164.844 193.17C165.646 194.018 166.749 194.441 168.152 194.441C169.729 194.441 171.178 193.922 172.5 192.883V194.988C171.27 195.882 169.643 196.328 167.619 196.328C165.641 196.328 164.087 195.695 162.957 194.428C161.827 193.152 161.262 191.361 161.262 189.055C161.262 186.876 161.877 185.104 163.107 183.736C164.347 182.36 165.883 181.672 167.715 181.672C169.547 181.672 170.964 182.264 171.967 183.449C172.969 184.634 173.471 186.279 173.471 188.385V189.561ZM171.174 187.66C171.165 186.366 170.85 185.359 170.23 184.639C169.62 183.919 168.768 183.559 167.674 183.559C166.617 183.559 165.719 183.937 164.98 184.693C164.242 185.45 163.786 186.439 163.613 187.66H171.174ZM179.117 196H176.875V175.273H179.117V196ZM185.898 196H183.656V175.273H185.898V196ZM200.459 196H198.217V193.812H198.162C197.187 195.49 195.751 196.328 193.855 196.328C192.461 196.328 191.367 195.959 190.574 195.221C189.79 194.482 189.398 193.503 189.398 192.281C189.398 189.665 190.939 188.143 194.02 187.715L198.217 187.127C198.217 184.748 197.255 183.559 195.332 183.559C193.646 183.559 192.124 184.133 190.766 185.281V182.984C192.142 182.109 193.728 181.672 195.523 181.672C198.814 181.672 200.459 183.413 200.459 186.895V196ZM198.217 188.918L194.84 189.383C193.801 189.529 193.017 189.788 192.488 190.162C191.96 190.527 191.695 191.178 191.695 192.117C191.695 192.801 191.937 193.361 192.42 193.799C192.912 194.227 193.564 194.441 194.375 194.441C195.487 194.441 196.403 194.054 197.123 193.279C197.852 192.495 198.217 191.507 198.217 190.312V188.918ZM227.406 196H225.109V187.059H214.965V196H212.668V176.395H214.965V184.994H225.109V176.395H227.406V196ZM238.098 196.328C236.029 196.328 234.374 195.676 233.135 194.373C231.904 193.061 231.289 191.324 231.289 189.164C231.289 186.812 231.932 184.976 233.217 183.654C234.502 182.333 236.238 181.672 238.426 181.672C240.513 181.672 242.14 182.314 243.307 183.6C244.482 184.885 245.07 186.667 245.07 188.945C245.07 191.178 244.437 192.969 243.17 194.318C241.912 195.658 240.221 196.328 238.098 196.328ZM238.262 183.559C236.822 183.559 235.682 184.051 234.844 185.035C234.005 186.01 233.586 187.359 233.586 189.082C233.586 190.741 234.01 192.049 234.857 193.006C235.705 193.963 236.84 194.441 238.262 194.441C239.711 194.441 240.823 193.972 241.598 193.033C242.382 192.094 242.773 190.759 242.773 189.027C242.773 187.277 242.382 185.928 241.598 184.98C240.823 184.033 239.711 183.559 238.262 183.559ZM247.805 195.494V193.088C249.026 193.99 250.37 194.441 251.838 194.441C253.807 194.441 254.791 193.785 254.791 192.473C254.791 192.099 254.704 191.785 254.531 191.529C254.367 191.265 254.139 191.033 253.848 190.832C253.565 190.632 253.228 190.454 252.836 190.299C252.453 190.135 252.038 189.966 251.592 189.793C250.972 189.547 250.425 189.301 249.951 189.055C249.486 188.799 249.094 188.517 248.775 188.207C248.465 187.888 248.229 187.528 248.064 187.127C247.91 186.726 247.832 186.257 247.832 185.719C247.832 185.062 247.982 184.484 248.283 183.982C248.584 183.472 248.985 183.048 249.486 182.711C249.988 182.365 250.557 182.105 251.195 181.932C251.842 181.758 252.508 181.672 253.191 181.672C254.404 181.672 255.488 181.882 256.445 182.301V184.57C255.415 183.896 254.23 183.559 252.891 183.559C252.471 183.559 252.093 183.609 251.756 183.709C251.419 183.8 251.127 183.932 250.881 184.105C250.644 184.279 250.457 184.488 250.32 184.734C250.193 184.971 250.129 185.236 250.129 185.527C250.129 185.892 250.193 186.197 250.32 186.443C250.457 186.689 250.653 186.908 250.908 187.1C251.163 187.291 251.473 187.464 251.838 187.619C252.202 187.774 252.617 187.943 253.082 188.125C253.702 188.362 254.258 188.608 254.75 188.863C255.242 189.109 255.661 189.392 256.008 189.711C256.354 190.021 256.618 190.381 256.801 190.791C256.992 191.201 257.088 191.689 257.088 192.254C257.088 192.947 256.933 193.548 256.623 194.059C256.322 194.569 255.917 194.993 255.406 195.33C254.896 195.667 254.308 195.918 253.643 196.082C252.977 196.246 252.28 196.328 251.551 196.328C250.111 196.328 248.862 196.05 247.805 195.494ZM262.844 193.977H262.789V202.439H260.547V182H262.789V184.461H262.844C263.947 182.602 265.56 181.672 267.684 181.672C269.488 181.672 270.896 182.301 271.908 183.559C272.92 184.807 273.426 186.484 273.426 188.59C273.426 190.932 272.856 192.81 271.717 194.223C270.577 195.626 269.019 196.328 267.041 196.328C265.227 196.328 263.828 195.544 262.844 193.977ZM262.789 188.33V190.285C262.789 191.443 263.163 192.427 263.91 193.238C264.667 194.04 265.624 194.441 266.781 194.441C268.139 194.441 269.201 193.922 269.967 192.883C270.742 191.844 271.129 190.399 271.129 188.549C271.129 186.99 270.769 185.769 270.049 184.885C269.329 184.001 268.354 183.559 267.123 183.559C265.82 183.559 264.771 184.014 263.979 184.926C263.186 185.828 262.789 186.963 262.789 188.33ZM278.156 178.445C277.755 178.445 277.413 178.309 277.131 178.035C276.848 177.762 276.707 177.415 276.707 176.996C276.707 176.577 276.848 176.23 277.131 175.957C277.413 175.674 277.755 175.533 278.156 175.533C278.566 175.533 278.913 175.674 279.195 175.957C279.487 176.23 279.633 176.577 279.633 176.996C279.633 177.397 279.487 177.739 279.195 178.021C278.913 178.304 278.566 178.445 278.156 178.445ZM279.25 196H277.008V182H279.25V196ZM290.283 195.863C289.755 196.155 289.057 196.301 288.191 196.301C285.74 196.301 284.514 194.934 284.514 192.199V183.914H282.107V182H284.514V178.582L286.756 177.857V182H290.283V183.914H286.756V191.803C286.756 192.742 286.915 193.411 287.234 193.812C287.553 194.214 288.082 194.414 288.82 194.414C289.385 194.414 289.873 194.259 290.283 193.949V195.863ZM303.299 196H301.057V193.812H301.002C300.027 195.49 298.591 196.328 296.695 196.328C295.301 196.328 294.207 195.959 293.414 195.221C292.63 194.482 292.238 193.503 292.238 192.281C292.238 189.665 293.779 188.143 296.859 187.715L301.057 187.127C301.057 184.748 300.095 183.559 298.172 183.559C296.486 183.559 294.964 184.133 293.605 185.281V182.984C294.982 182.109 296.568 181.672 298.363 181.672C301.654 181.672 303.299 183.413 303.299 186.895V196ZM301.057 188.918L297.68 189.383C296.641 189.529 295.857 189.788 295.328 190.162C294.799 190.527 294.535 191.178 294.535 192.117C294.535 192.801 294.777 193.361 295.26 193.799C295.752 194.227 296.404 194.441 297.215 194.441C298.327 194.441 299.243 194.054 299.963 193.279C300.692 192.495 301.057 191.507 301.057 190.312V188.918ZM309.766 196H307.523V175.273H309.766V196ZM315.453 178.445C315.052 178.445 314.71 178.309 314.428 178.035C314.145 177.762 314.004 177.415 314.004 176.996C314.004 176.577 314.145 176.23 314.428 175.957C314.71 175.674 315.052 175.533 315.453 175.533C315.863 175.533 316.21 175.674 316.492 175.957C316.784 176.23 316.93 176.577 316.93 176.996C316.93 177.397 316.784 177.739 316.492 178.021C316.21 178.304 315.863 178.445 315.453 178.445ZM316.547 196H314.305V182H316.547V196ZM327.58 195.863C327.051 196.155 326.354 196.301 325.488 196.301C323.036 196.301 321.811 194.934 321.811 192.199V183.914H319.404V182H321.811V178.582L324.053 177.857V182H327.58V183.914H324.053V191.803C324.053 192.742 324.212 193.411 324.531 193.812C324.85 194.214 325.379 194.414 326.117 194.414C326.682 194.414 327.17 194.259 327.58 193.949V195.863ZM341.717 182L335.277 198.242C334.129 201.141 332.516 202.59 330.438 202.59C329.854 202.59 329.367 202.531 328.975 202.412V200.402C329.458 200.566 329.9 200.648 330.301 200.648C331.431 200.648 332.279 199.974 332.844 198.625L333.965 195.973L328.496 182H330.984L334.771 192.773C334.817 192.91 334.913 193.266 335.059 193.84H335.141C335.186 193.621 335.277 193.275 335.414 192.801L339.393 182H341.717ZM351.205 195.207V192.5C351.515 192.773 351.884 193.02 352.312 193.238C352.75 193.457 353.206 193.644 353.68 193.799C354.163 193.945 354.646 194.059 355.129 194.141C355.612 194.223 356.059 194.264 356.469 194.264C357.882 194.264 358.934 194.004 359.627 193.484C360.329 192.956 360.68 192.199 360.68 191.215C360.68 190.686 360.561 190.226 360.324 189.834C360.096 189.442 359.777 189.087 359.367 188.768C358.957 188.439 358.469 188.13 357.904 187.838C357.348 187.537 356.747 187.223 356.1 186.895C355.416 186.548 354.778 186.197 354.186 185.842C353.593 185.486 353.078 185.094 352.641 184.666C352.203 184.238 351.857 183.755 351.602 183.217C351.355 182.67 351.232 182.032 351.232 181.303C351.232 180.41 351.428 179.635 351.82 178.979C352.212 178.313 352.727 177.766 353.365 177.338C354.003 176.91 354.728 176.59 355.539 176.381C356.359 176.171 357.193 176.066 358.041 176.066C359.973 176.066 361.382 176.299 362.266 176.764V179.348C361.108 178.546 359.622 178.145 357.809 178.145C357.307 178.145 356.806 178.199 356.305 178.309C355.803 178.409 355.357 178.577 354.965 178.814C354.573 179.051 354.254 179.357 354.008 179.73C353.762 180.104 353.639 180.56 353.639 181.098C353.639 181.599 353.73 182.032 353.912 182.396C354.104 182.761 354.382 183.094 354.746 183.395C355.111 183.695 355.553 183.987 356.072 184.27C356.601 184.552 357.207 184.862 357.891 185.199C358.592 185.546 359.258 185.91 359.887 186.293C360.516 186.676 361.067 187.1 361.541 187.564C362.015 188.029 362.389 188.544 362.662 189.109C362.945 189.674 363.086 190.322 363.086 191.051C363.086 192.017 362.895 192.837 362.512 193.512C362.138 194.177 361.628 194.719 360.98 195.139C360.342 195.558 359.604 195.859 358.766 196.041C357.927 196.232 357.043 196.328 356.113 196.328C355.803 196.328 355.421 196.301 354.965 196.246C354.509 196.201 354.044 196.128 353.57 196.027C353.096 195.936 352.645 195.822 352.217 195.686C351.798 195.54 351.46 195.38 351.205 195.207ZM377.947 189.561H368.062C368.099 191.119 368.518 192.322 369.32 193.17C370.122 194.018 371.225 194.441 372.629 194.441C374.206 194.441 375.655 193.922 376.977 192.883V194.988C375.746 195.882 374.119 196.328 372.096 196.328C370.118 196.328 368.564 195.695 367.434 194.428C366.303 193.152 365.738 191.361 365.738 189.055C365.738 186.876 366.354 185.104 367.584 183.736C368.824 182.36 370.359 181.672 372.191 181.672C374.023 181.672 375.441 182.264 376.443 183.449C377.446 184.634 377.947 186.279 377.947 188.385V189.561ZM375.65 187.66C375.641 186.366 375.327 185.359 374.707 184.639C374.096 183.919 373.244 183.559 372.15 183.559C371.093 183.559 370.195 183.937 369.457 184.693C368.719 185.45 368.263 186.439 368.09 187.66H375.65ZM388.652 184.27C388.26 183.969 387.695 183.818 386.957 183.818C386 183.818 385.198 184.27 384.551 185.172C383.913 186.074 383.594 187.305 383.594 188.863V196H381.352V182H383.594V184.885H383.648C383.967 183.9 384.455 183.135 385.111 182.588C385.768 182.032 386.501 181.754 387.312 181.754C387.896 181.754 388.342 181.818 388.652 181.945V184.27ZM402.092 182L396.514 196H394.312L389.008 182H391.469L395.023 192.172C395.288 192.919 395.452 193.571 395.516 194.127H395.57C395.661 193.425 395.807 192.792 396.008 192.227L399.727 182H402.092ZM405.66 178.445C405.259 178.445 404.917 178.309 404.635 178.035C404.352 177.762 404.211 177.415 404.211 176.996C404.211 176.577 404.352 176.23 404.635 175.957C404.917 175.674 405.259 175.533 405.66 175.533C406.07 175.533 406.417 175.674 406.699 175.957C406.991 176.23 407.137 176.577 407.137 176.996C407.137 177.397 406.991 177.739 406.699 178.021C406.417 178.304 406.07 178.445 405.66 178.445ZM406.754 196H404.512V182H406.754V196ZM420.836 195.357C419.76 196.005 418.484 196.328 417.008 196.328C415.012 196.328 413.398 195.681 412.168 194.387C410.947 193.083 410.336 191.397 410.336 189.328C410.336 187.022 410.997 185.172 412.318 183.777C413.64 182.374 415.404 181.672 417.609 181.672C418.84 181.672 419.924 181.9 420.863 182.355V184.652C419.824 183.923 418.712 183.559 417.527 183.559C416.096 183.559 414.921 184.074 414 185.104C413.089 186.124 412.633 187.469 412.633 189.137C412.633 190.777 413.061 192.072 413.918 193.02C414.784 193.967 415.941 194.441 417.391 194.441C418.612 194.441 419.76 194.036 420.836 193.225V195.357ZM435.479 189.561H425.594C425.63 191.119 426.049 192.322 426.852 193.17C427.654 194.018 428.757 194.441 430.16 194.441C431.737 194.441 433.186 193.922 434.508 192.883V194.988C433.277 195.882 431.65 196.328 429.627 196.328C427.649 196.328 426.095 195.695 424.965 194.428C423.835 193.152 423.27 191.361 423.27 189.055C423.27 186.876 423.885 185.104 425.115 183.736C426.355 182.36 427.891 181.672 429.723 181.672C431.555 181.672 432.972 182.264 433.975 183.449C434.977 184.634 435.479 186.279 435.479 188.385V189.561ZM433.182 187.66C433.173 186.366 432.858 185.359 432.238 184.639C431.628 183.919 430.775 183.559 429.682 183.559C428.624 183.559 427.727 183.937 426.988 184.693C426.25 185.45 425.794 186.439 425.621 187.66H433.182ZM438.035 195.494V193.088C439.257 193.99 440.601 194.441 442.068 194.441C444.037 194.441 445.021 193.785 445.021 192.473C445.021 192.099 444.935 191.785 444.762 191.529C444.598 191.265 444.37 191.033 444.078 190.832C443.796 190.632 443.458 190.454 443.066 190.299C442.684 190.135 442.269 189.966 441.822 189.793C441.202 189.547 440.656 189.301 440.182 189.055C439.717 188.799 439.325 188.517 439.006 188.207C438.696 187.888 438.459 187.528 438.295 187.127C438.14 186.726 438.062 186.257 438.062 185.719C438.062 185.062 438.213 184.484 438.514 183.982C438.814 183.472 439.215 183.048 439.717 182.711C440.218 182.365 440.788 182.105 441.426 181.932C442.073 181.758 442.738 181.672 443.422 181.672C444.634 181.672 445.719 181.882 446.676 182.301V184.57C445.646 183.896 444.461 183.559 443.121 183.559C442.702 183.559 442.324 183.609 441.986 183.709C441.649 183.8 441.357 183.932 441.111 184.105C440.874 184.279 440.688 184.488 440.551 184.734C440.423 184.971 440.359 185.236 440.359 185.527C440.359 185.892 440.423 186.197 440.551 186.443C440.688 186.689 440.883 186.908 441.139 187.1C441.394 187.291 441.704 187.464 442.068 187.619C442.433 187.774 442.848 187.943 443.312 188.125C443.932 188.362 444.488 188.608 444.98 188.863C445.473 189.109 445.892 189.392 446.238 189.711C446.585 190.021 446.849 190.381 447.031 190.791C447.223 191.201 447.318 191.689 447.318 192.254C447.318 192.947 447.163 193.548 446.854 194.059C446.553 194.569 446.147 194.993 445.637 195.33C445.126 195.667 444.538 195.918 443.873 196.082C443.208 196.246 442.51 196.328 441.781 196.328C440.341 196.328 439.092 196.05 438.035 195.494Z" fill="#222DAA"/>
<path d="M152.051 213.732H147.129V218.092H151.682V219.419H147.129V225H145.652V212.396H152.051V213.732ZM158.01 225.211C156.68 225.211 155.616 224.792 154.819 223.954C154.028 223.11 153.633 221.994 153.633 220.605C153.633 219.094 154.046 217.913 154.872 217.063C155.698 216.214 156.814 215.789 158.221 215.789C159.562 215.789 160.608 216.202 161.358 217.028C162.114 217.854 162.492 219 162.492 220.465C162.492 221.9 162.085 223.052 161.271 223.919C160.462 224.78 159.375 225.211 158.01 225.211ZM158.115 217.002C157.189 217.002 156.457 217.318 155.918 217.951C155.379 218.578 155.109 219.445 155.109 220.553C155.109 221.619 155.382 222.46 155.927 223.075C156.472 223.69 157.201 223.998 158.115 223.998C159.047 223.998 159.762 223.696 160.26 223.093C160.764 222.489 161.016 221.631 161.016 220.518C161.016 219.393 160.764 218.525 160.26 217.916C159.762 217.307 159.047 217.002 158.115 217.002ZM169.488 217.459C169.236 217.266 168.873 217.169 168.398 217.169C167.783 217.169 167.268 217.459 166.852 218.039C166.441 218.619 166.236 219.41 166.236 220.412V225H164.795V216H166.236V217.854H166.271C166.477 217.222 166.79 216.729 167.212 216.378C167.634 216.021 168.105 215.842 168.627 215.842C169.002 215.842 169.289 215.883 169.488 215.965V217.459ZM183.639 213.732H180V225H178.523V213.732H174.894V212.396H183.639V213.732ZM188.561 217.459C188.309 217.266 187.945 217.169 187.471 217.169C186.855 217.169 186.34 217.459 185.924 218.039C185.514 218.619 185.309 219.41 185.309 220.412V225H183.867V216H185.309V217.854H185.344C185.549 217.222 185.862 216.729 186.284 216.378C186.706 216.021 187.178 215.842 187.699 215.842C188.074 215.842 188.361 215.883 188.561 215.965V217.459ZM196.567 225H195.126V223.594H195.091C194.464 224.672 193.541 225.211 192.322 225.211C191.426 225.211 190.723 224.974 190.213 224.499C189.709 224.024 189.457 223.395 189.457 222.609C189.457 220.928 190.447 219.949 192.428 219.674L195.126 219.296C195.126 217.767 194.508 217.002 193.271 217.002C192.188 217.002 191.209 217.371 190.336 218.109V216.633C191.221 216.07 192.24 215.789 193.395 215.789C195.51 215.789 196.567 216.908 196.567 219.146V225ZM195.126 220.447L192.955 220.746C192.287 220.84 191.783 221.007 191.443 221.247C191.104 221.481 190.934 221.9 190.934 222.504C190.934 222.943 191.089 223.304 191.399 223.585C191.716 223.86 192.135 223.998 192.656 223.998C193.371 223.998 193.96 223.749 194.423 223.251C194.892 222.747 195.126 222.111 195.126 221.344V220.447ZM206.965 225H205.523V223.471H205.488C204.82 224.631 203.789 225.211 202.395 225.211C201.264 225.211 200.358 224.81 199.679 224.007C199.005 223.198 198.668 222.1 198.668 220.711C198.668 219.223 199.043 218.03 199.793 217.134C200.543 216.237 201.542 215.789 202.79 215.789C204.026 215.789 204.926 216.275 205.488 217.248H205.523V211.676H206.965V225ZM205.523 220.931V219.604C205.523 218.877 205.283 218.262 204.803 217.758C204.322 217.254 203.713 217.002 202.975 217.002C202.096 217.002 201.404 217.324 200.9 217.969C200.396 218.613 200.145 219.504 200.145 220.641C200.145 221.678 200.385 222.498 200.865 223.102C201.352 223.699 202.002 223.998 202.816 223.998C203.619 223.998 204.27 223.708 204.768 223.128C205.271 222.548 205.523 221.815 205.523 220.931ZM210.621 213.715C210.363 213.715 210.144 213.627 209.962 213.451C209.78 213.275 209.689 213.053 209.689 212.783C209.689 212.514 209.78 212.291 209.962 212.115C210.144 211.934 210.363 211.843 210.621 211.843C210.885 211.843 211.107 211.934 211.289 212.115C211.477 212.291 211.57 212.514 211.57 212.783C211.57 213.041 211.477 213.261 211.289 213.442C211.107 213.624 210.885 213.715 210.621 213.715ZM211.324 225H209.883V216H211.324V225ZM221.713 225H220.271V219.867C220.271 217.957 219.574 217.002 218.18 217.002C217.459 217.002 216.861 217.274 216.387 217.819C215.918 218.358 215.684 219.041 215.684 219.867V225H214.242V216H215.684V217.494H215.719C216.398 216.357 217.383 215.789 218.672 215.789C219.656 215.789 220.409 216.108 220.931 216.747C221.452 217.38 221.713 218.297 221.713 219.498V225ZM232.119 224.279C232.119 227.584 230.537 229.236 227.373 229.236C226.26 229.236 225.287 229.025 224.455 228.604V227.162C225.469 227.725 226.436 228.006 227.355 228.006C229.57 228.006 230.678 226.828 230.678 224.473V223.488H230.643C229.957 224.637 228.926 225.211 227.549 225.211C226.43 225.211 225.527 224.812 224.842 224.016C224.162 223.213 223.822 222.138 223.822 220.79C223.822 219.261 224.188 218.045 224.921 217.143C225.659 216.24 226.667 215.789 227.944 215.789C229.157 215.789 230.057 216.275 230.643 217.248H230.678V216H232.119V224.279ZM230.678 220.931V219.604C230.678 218.889 230.435 218.276 229.948 217.767C229.468 217.257 228.867 217.002 228.146 217.002C227.256 217.002 226.559 217.327 226.055 217.978C225.551 218.622 225.299 219.527 225.299 220.693C225.299 221.695 225.539 222.498 226.02 223.102C226.506 223.699 227.147 223.998 227.944 223.998C228.753 223.998 229.409 223.711 229.913 223.137C230.423 222.562 230.678 221.827 230.678 220.931ZM236.355 222.996L234.949 227.32H233.921L234.949 222.996H236.355ZM247.711 224.473C246.779 224.965 245.619 225.211 244.23 225.211C242.438 225.211 241.002 224.634 239.924 223.479C238.846 222.325 238.307 220.811 238.307 218.936C238.307 216.92 238.913 215.291 240.126 214.049C241.339 212.807 242.877 212.186 244.74 212.186C245.936 212.186 246.926 212.358 247.711 212.704V214.277C246.809 213.773 245.812 213.521 244.723 213.521C243.275 213.521 242.101 214.005 241.198 214.972C240.302 215.938 239.854 217.23 239.854 218.848C239.854 220.383 240.272 221.607 241.11 222.521C241.954 223.43 243.059 223.884 244.424 223.884C245.689 223.884 246.785 223.603 247.711 223.04V224.473ZM251.525 225H250.084V211.676H251.525V225ZM261.677 220.86H255.322C255.346 221.862 255.615 222.636 256.131 223.181C256.646 223.726 257.355 223.998 258.258 223.998C259.271 223.998 260.203 223.664 261.053 222.996V224.35C260.262 224.924 259.216 225.211 257.915 225.211C256.644 225.211 255.645 224.804 254.918 223.989C254.191 223.169 253.828 222.018 253.828 220.535C253.828 219.135 254.224 217.995 255.015 217.116C255.812 216.231 256.799 215.789 257.977 215.789C259.154 215.789 260.065 216.17 260.71 216.932C261.354 217.693 261.677 218.751 261.677 220.104V220.86ZM260.2 219.639C260.194 218.807 259.992 218.159 259.594 217.696C259.201 217.233 258.653 217.002 257.95 217.002C257.271 217.002 256.693 217.245 256.219 217.731C255.744 218.218 255.451 218.854 255.34 219.639H260.2ZM270.308 225H268.866V223.594H268.831C268.204 224.672 267.281 225.211 266.062 225.211C265.166 225.211 264.463 224.974 263.953 224.499C263.449 224.024 263.197 223.395 263.197 222.609C263.197 220.928 264.188 219.949 266.168 219.674L268.866 219.296C268.866 217.767 268.248 217.002 267.012 217.002C265.928 217.002 264.949 217.371 264.076 218.109V216.633C264.961 216.07 265.98 215.789 267.135 215.789C269.25 215.789 270.308 216.908 270.308 219.146V225ZM268.866 220.447L266.695 220.746C266.027 220.84 265.523 221.007 265.184 221.247C264.844 221.481 264.674 221.9 264.674 222.504C264.674 222.943 264.829 223.304 265.14 223.585C265.456 223.86 265.875 223.998 266.396 223.998C267.111 223.998 267.7 223.749 268.163 223.251C268.632 222.747 268.866 222.111 268.866 221.344V220.447ZM280.494 225H279.053V219.867C279.053 217.957 278.355 217.002 276.961 217.002C276.24 217.002 275.643 217.274 275.168 217.819C274.699 218.358 274.465 219.041 274.465 219.867V225H273.023V216H274.465V217.494H274.5C275.18 216.357 276.164 215.789 277.453 215.789C278.438 215.789 279.19 216.108 279.712 216.747C280.233 217.38 280.494 218.297 280.494 219.498V225ZM283.957 213.715C283.699 213.715 283.479 213.627 283.298 213.451C283.116 213.275 283.025 213.053 283.025 212.783C283.025 212.514 283.116 212.291 283.298 212.115C283.479 211.934 283.699 211.843 283.957 211.843C284.221 211.843 284.443 211.934 284.625 212.115C284.812 212.291 284.906 212.514 284.906 212.783C284.906 213.041 284.812 213.261 284.625 213.442C284.443 213.624 284.221 213.715 283.957 213.715ZM284.66 225H283.219V216H284.66V225ZM295.049 225H293.607V219.867C293.607 217.957 292.91 217.002 291.516 217.002C290.795 217.002 290.197 217.274 289.723 217.819C289.254 218.358 289.02 219.041 289.02 219.867V225H287.578V216H289.02V217.494H289.055C289.734 216.357 290.719 215.789 292.008 215.789C292.992 215.789 293.745 216.108 294.267 216.747C294.788 217.38 295.049 218.297 295.049 219.498V225ZM305.455 224.279C305.455 227.584 303.873 229.236 300.709 229.236C299.596 229.236 298.623 229.025 297.791 228.604V227.162C298.805 227.725 299.771 228.006 300.691 228.006C302.906 228.006 304.014 226.828 304.014 224.473V223.488H303.979C303.293 224.637 302.262 225.211 300.885 225.211C299.766 225.211 298.863 224.812 298.178 224.016C297.498 223.213 297.158 222.138 297.158 220.79C297.158 219.261 297.524 218.045 298.257 217.143C298.995 216.24 300.003 215.789 301.28 215.789C302.493 215.789 303.393 216.275 303.979 217.248H304.014V216H305.455V224.279ZM304.014 220.931V219.604C304.014 218.889 303.771 218.276 303.284 217.767C302.804 217.257 302.203 217.002 301.482 217.002C300.592 217.002 299.895 217.327 299.391 217.978C298.887 218.622 298.635 219.527 298.635 220.693C298.635 221.695 298.875 222.498 299.355 223.102C299.842 223.699 300.483 223.998 301.28 223.998C302.089 223.998 302.745 223.711 303.249 223.137C303.759 222.562 304.014 221.827 304.014 220.931ZM324.554 225.202C324.22 225.202 323.924 225.155 323.666 225.062C323.414 224.974 323.18 224.848 322.963 224.684C322.746 224.514 322.535 224.309 322.33 224.068C322.131 223.828 321.92 223.556 321.697 223.251C321.463 223.503 321.19 223.746 320.88 223.98C320.575 224.215 320.235 224.423 319.86 224.604C319.485 224.786 319.075 224.93 318.63 225.035C318.185 225.146 317.701 225.202 317.18 225.202C316.547 225.202 315.967 225.123 315.439 224.965C314.912 224.807 314.461 224.575 314.086 224.271C313.711 223.96 313.418 223.579 313.207 223.128C313.002 222.677 312.899 222.158 312.899 221.572C312.899 220.676 313.154 219.911 313.664 219.278C314.174 218.64 314.895 218.118 315.826 217.714C315.65 217.585 315.475 217.436 315.299 217.266C315.123 217.09 314.965 216.894 314.824 216.677C314.689 216.454 314.578 216.211 314.49 215.947C314.408 215.678 314.367 215.385 314.367 215.068C314.367 214.605 314.449 214.195 314.613 213.838C314.783 213.48 315.015 213.179 315.308 212.933C315.601 212.687 315.946 212.502 316.345 212.379C316.743 212.25 317.174 212.186 317.637 212.186C318.094 212.186 318.51 212.25 318.885 212.379C319.266 212.502 319.591 212.681 319.86 212.915C320.136 213.149 320.35 213.431 320.502 213.759C320.654 214.087 320.73 214.453 320.73 214.857C320.73 215.561 320.528 216.146 320.124 216.615C319.726 217.078 319.125 217.474 318.322 217.802C318.727 217.96 319.093 218.153 319.421 218.382C319.749 218.61 320.051 218.865 320.326 219.146C320.607 219.428 320.868 219.729 321.108 220.052C321.349 220.374 321.586 220.708 321.82 221.054C322.295 220.392 322.652 219.662 322.893 218.865C323.133 218.068 323.253 217.233 323.253 216.36C323.253 216.138 323.238 215.93 323.209 215.736C323.186 215.537 323.15 215.341 323.104 215.147H324.501C324.548 215.341 324.574 215.525 324.58 215.701C324.592 215.871 324.604 216.076 324.615 216.316C324.615 216.85 324.56 217.386 324.448 217.925C324.337 218.464 324.188 218.988 324 219.498C323.812 220.002 323.593 220.482 323.341 220.939C323.095 221.396 322.834 221.815 322.559 222.196C322.764 222.478 322.951 222.724 323.121 222.935C323.291 223.14 323.461 223.312 323.631 223.453C323.807 223.594 323.985 223.699 324.167 223.77C324.354 223.834 324.565 223.866 324.8 223.866C324.976 223.866 325.154 223.843 325.336 223.796C325.518 223.749 325.705 223.69 325.898 223.62V224.956C325.688 225.038 325.465 225.1 325.23 225.141C325.002 225.182 324.776 225.202 324.554 225.202ZM317.18 223.954C317.625 223.954 318.035 223.907 318.41 223.813C318.785 223.714 319.131 223.585 319.447 223.427C319.764 223.263 320.051 223.075 320.309 222.864C320.566 222.647 320.801 222.422 321.012 222.188C320.654 221.631 320.323 221.156 320.019 220.764C319.72 220.365 319.415 220.022 319.104 219.735C318.8 219.448 318.472 219.202 318.12 218.997C317.774 218.792 317.373 218.602 316.916 218.426C316.547 218.572 316.207 218.736 315.896 218.918C315.586 219.094 315.316 219.305 315.088 219.551C314.865 219.791 314.689 220.072 314.561 220.395C314.432 220.717 314.367 221.095 314.367 221.528C314.367 221.927 314.44 222.278 314.587 222.583C314.733 222.888 314.933 223.143 315.185 223.348C315.442 223.547 315.741 223.699 316.081 223.805C316.421 223.904 316.787 223.954 317.18 223.954ZM319.377 214.98C319.377 214.688 319.321 214.438 319.21 214.233C319.104 214.028 318.967 213.858 318.797 213.724C318.633 213.589 318.448 213.492 318.243 213.434C318.038 213.369 317.836 213.337 317.637 213.337C317.062 213.337 316.603 213.492 316.257 213.803C315.917 214.113 315.744 214.535 315.738 215.068C315.738 215.309 315.773 215.534 315.844 215.745C315.92 215.956 316.022 216.152 316.151 216.334C316.286 216.516 316.441 216.677 316.617 216.817C316.793 216.958 316.98 217.078 317.18 217.178C317.918 216.92 318.469 216.621 318.832 216.281C319.195 215.936 319.377 215.502 319.377 214.98ZM341.438 224.473C340.506 224.965 339.346 225.211 337.957 225.211C336.164 225.211 334.729 224.634 333.65 223.479C332.572 222.325 332.033 220.811 332.033 218.936C332.033 216.92 332.64 215.291 333.853 214.049C335.065 212.807 336.604 212.186 338.467 212.186C339.662 212.186 340.652 212.358 341.438 212.704V214.277C340.535 213.773 339.539 213.521 338.449 213.521C337.002 213.521 335.827 214.005 334.925 214.972C334.028 215.938 333.58 217.23 333.58 218.848C333.58 220.383 333.999 221.607 334.837 222.521C335.681 223.43 336.785 223.884 338.15 223.884C339.416 223.884 340.512 223.603 341.438 223.04V224.473ZM347.572 225.211C346.242 225.211 345.179 224.792 344.382 223.954C343.591 223.11 343.195 221.994 343.195 220.605C343.195 219.094 343.608 217.913 344.435 217.063C345.261 216.214 346.377 215.789 347.783 215.789C349.125 215.789 350.171 216.202 350.921 217.028C351.677 217.854 352.055 219 352.055 220.465C352.055 221.9 351.647 223.052 350.833 223.919C350.024 224.78 348.938 225.211 347.572 225.211ZM347.678 217.002C346.752 217.002 346.02 217.318 345.48 217.951C344.941 218.578 344.672 219.445 344.672 220.553C344.672 221.619 344.944 222.46 345.489 223.075C346.034 223.69 346.764 223.998 347.678 223.998C348.609 223.998 349.324 223.696 349.822 223.093C350.326 222.489 350.578 221.631 350.578 220.518C350.578 219.393 350.326 218.525 349.822 217.916C349.324 217.307 348.609 217.002 347.678 217.002ZM361.828 225H360.387V219.867C360.387 217.957 359.689 217.002 358.295 217.002C357.574 217.002 356.977 217.274 356.502 217.819C356.033 218.358 355.799 219.041 355.799 219.867V225H354.357V216H355.799V217.494H355.834C356.514 216.357 357.498 215.789 358.787 215.789C359.771 215.789 360.524 216.108 361.046 216.747C361.567 217.38 361.828 218.297 361.828 219.498V225ZM368.728 224.912C368.388 225.1 367.939 225.193 367.383 225.193C365.807 225.193 365.019 224.314 365.019 222.557V217.23H363.472V216H365.019V213.803L366.46 213.337V216H368.728V217.23H366.46V222.302C366.46 222.905 366.562 223.336 366.768 223.594C366.973 223.852 367.312 223.98 367.787 223.98C368.15 223.98 368.464 223.881 368.728 223.682V224.912ZM375.346 217.459C375.094 217.266 374.73 217.169 374.256 217.169C373.641 217.169 373.125 217.459 372.709 218.039C372.299 218.619 372.094 219.41 372.094 220.412V225H370.652V216H372.094V217.854H372.129C372.334 217.222 372.647 216.729 373.069 216.378C373.491 216.021 373.963 215.842 374.484 215.842C374.859 215.842 375.146 215.883 375.346 215.965V217.459ZM383.353 225H381.911V223.594H381.876C381.249 224.672 380.326 225.211 379.107 225.211C378.211 225.211 377.508 224.974 376.998 224.499C376.494 224.024 376.242 223.395 376.242 222.609C376.242 220.928 377.232 219.949 379.213 219.674L381.911 219.296C381.911 217.767 381.293 217.002 380.057 217.002C378.973 217.002 377.994 217.371 377.121 218.109V216.633C378.006 216.07 379.025 215.789 380.18 215.789C382.295 215.789 383.353 216.908 383.353 219.146V225ZM381.911 220.447L379.74 220.746C379.072 220.84 378.568 221.007 378.229 221.247C377.889 221.481 377.719 221.9 377.719 222.504C377.719 222.943 377.874 223.304 378.185 223.585C378.501 223.86 378.92 223.998 379.441 223.998C380.156 223.998 380.745 223.749 381.208 223.251C381.677 222.747 381.911 222.111 381.911 221.344V220.447ZM392.203 224.587C391.512 225.003 390.691 225.211 389.742 225.211C388.459 225.211 387.422 224.795 386.631 223.963C385.846 223.125 385.453 222.041 385.453 220.711C385.453 219.229 385.878 218.039 386.728 217.143C387.577 216.24 388.711 215.789 390.129 215.789C390.92 215.789 391.617 215.936 392.221 216.229V217.705C391.553 217.236 390.838 217.002 390.076 217.002C389.156 217.002 388.4 217.333 387.809 217.995C387.223 218.651 386.93 219.516 386.93 220.588C386.93 221.643 387.205 222.475 387.756 223.084C388.312 223.693 389.057 223.998 389.988 223.998C390.773 223.998 391.512 223.737 392.203 223.216V224.587ZM398.558 224.912C398.218 225.1 397.77 225.193 397.213 225.193C395.637 225.193 394.849 224.314 394.849 222.557V217.23H393.302V216H394.849V213.803L396.29 213.337V216H398.558V217.23H396.29V222.302C396.29 222.905 396.393 223.336 396.598 223.594C396.803 223.852 397.143 223.98 397.617 223.98C397.98 223.98 398.294 223.881 398.558 223.682V224.912ZM401.221 213.715C400.963 213.715 400.743 213.627 400.562 213.451C400.38 213.275 400.289 213.053 400.289 212.783C400.289 212.514 400.38 212.291 400.562 212.115C400.743 211.934 400.963 211.843 401.221 211.843C401.484 211.843 401.707 211.934 401.889 212.115C402.076 212.291 402.17 212.514 402.17 212.783C402.17 213.041 402.076 213.261 401.889 213.442C401.707 213.624 401.484 213.715 401.221 213.715ZM401.924 225H400.482V216H401.924V225ZM412.312 225H410.871V219.867C410.871 217.957 410.174 217.002 408.779 217.002C408.059 217.002 407.461 217.274 406.986 217.819C406.518 218.358 406.283 219.041 406.283 219.867V225H404.842V216H406.283V217.494H406.318C406.998 216.357 407.982 215.789 409.271 215.789C410.256 215.789 411.009 216.108 411.53 216.747C412.052 217.38 412.312 218.297 412.312 219.498V225ZM422.719 224.279C422.719 227.584 421.137 229.236 417.973 229.236C416.859 229.236 415.887 229.025 415.055 228.604V227.162C416.068 227.725 417.035 228.006 417.955 228.006C420.17 228.006 421.277 226.828 421.277 224.473V223.488H421.242C420.557 224.637 419.525 225.211 418.148 225.211C417.029 225.211 416.127 224.812 415.441 224.016C414.762 223.213 414.422 222.138 414.422 220.79C414.422 219.261 414.788 218.045 415.521 217.143C416.259 216.24 417.267 215.789 418.544 215.789C419.757 215.789 420.656 216.275 421.242 217.248H421.277V216H422.719V224.279ZM421.277 220.931V219.604C421.277 218.889 421.034 218.276 420.548 217.767C420.067 217.257 419.467 217.002 418.746 217.002C417.855 217.002 417.158 217.327 416.654 217.978C416.15 218.622 415.898 219.527 415.898 220.693C415.898 221.695 416.139 222.498 416.619 223.102C417.105 223.699 417.747 223.998 418.544 223.998C419.353 223.998 420.009 223.711 420.513 223.137C421.022 222.562 421.277 221.827 421.277 220.931Z" fill="#222DAA"/>
</svg>
